<?xml version="1.0" encoding="utf-8"?>
<!-- Generator: Adobe Illustrator 19.0.0, SVG Export Plug-In . SVG Version: 6.00 Build 0)  -->
<svg version="1.1" id="Layer_1" xmlns="http://www.w3.org/2000/svg" xmlns:xlink="http://www.w3.org/1999/xlink" x="0px" y="0px"
	 viewBox="-455 251 48 48" style="enable-background:new -455 251 48 48;" xml:space="preserve">
<style type="text/css">
	.st0{fill:#FFFFFF;}
</style>
<g>
	<path class="st0" d="M-416,255h-30c-0.5,0-1,0.4-1,1v23c0,0.6,0.4,1,1,1h30c0.6,0,1-0.4,1-1v-23C-415,255.4-415.4,255-416,255z
		 M-417,278h-28v-21h28V278z"/>
	<path class="st0" d="M-407,292c0-0.1,0-0.3-0.1-0.4l-3.9-8.8V252c0-0.6-0.4-1-1-1h-38c-0.5,0-1,0.4-1,1v30.8l-3.9,8.8l-0.1,0.4v3.7
		c0,1.9,1.5,3.3,3.3,3.3h41.5c1.8,0,3.3-1.5,3.3-3.3L-407,292L-407,292z M-449,253h36v29h-36V253z M-449.3,284h36.7l3.1,7h-43
		L-449.3,284z M-409,295.8c0,0.7-0.6,1.3-1.3,1.3h-41.4c-0.7-0.1-1.3-0.7-1.3-1.3V293h44V295.8z"/>
	<path class="st0" d="M-429.1,287.2h-3.8c-0.6,0-1,0.4-1,1c0,0.6,0.4,1,1,1h3.8c0.6,0,1-0.4,1-1
		C-428.1,287.6-428.5,287.2-429.1,287.2z"/>
	<polygon class="st0" points="-436.4,269.2 -441.5,266.8 -441.5,266.7 -436.4,264.3 -436.4,262.7 -443.3,265.9 -443.3,267.7 
		-436.4,270.9 	"/>
	<polygon class="st0" points="-427.1,260.7 -428.6,260.7 -434.9,274.3 -433.4,274.3 	"/>
	<polygon class="st0" points="-418.7,265.9 -425.6,262.7 -425.6,264.3 -420.5,266.7 -420.5,266.8 -425.6,269.2 -425.6,270.9 
		-418.7,267.7 	"/>
</g>
</svg>
