<?xml version="1.0" encoding="utf-8"?>
<!-- Generator: Adobe Illustrator 19.0.0, SVG Export Plug-In . SVG Version: 6.00 Build 0)  -->
<svg version="1.1" id="Layer_1" xmlns="http://www.w3.org/2000/svg" xmlns:xlink="http://www.w3.org/1999/xlink" x="0px" y="0px"
	 viewBox="-429 233.9 100 95.1" style="enable-background:new -429 233.9 100 95.1;" xml:space="preserve">
<style type="text/css">
	.st0{fill:#FFFFFF;}
</style>
<polygon class="st0" points="-397.1,302.6 -397.1,310.9 -391.5,310.9 -366.5,310.9 -360.9,310.9 -360.9,302.6 "/>
<path class="st0" d="M-383.2,290.1c0-0.8-0.6-1.4-1.4-1.4c-0.6,0-1.1,0.4-1.3,1l0,0l-2.5,7.4h-7.3c-0.8,0-1.4,0.6-1.4,1.4
	s0.6,1.4,1.4,1.4h9.3l3.1-9.3l0,0C-383.2,290.4-383.2,290.3-383.2,290.1z"/>
<g>
	<path class="st0" d="M-392.9,288.7h-12l-3.5-9.6l0,0c-0.5-1.7-2.1-2.9-4-2.9c-0.7,0-1.3,0.2-1.9,0.5l0,0
		c-9.5,4.8-14.8,15.5-14.8,30.1c0,2.3,1.9,4.2,4.2,4.2h12.5v13.9c0,2.3,1.9,4.2,4.2,4.2c2.3,0,4.2-1.9,4.2-4.2v-18.1
		c0-2.3-1.9-4.2-4.2-4.2h-12.3c0.5-6,2.3-12.5,7-16.5l4.3,6.6l0,0c0.5,0.9,1.4,1.5,2.5,1.5h13.9c1.5,0,2.8-1.2,2.8-2.8
		S-391.4,288.7-392.9,288.7z"/>
	<circle class="st0" cx="-401.2" cy="273.4" r="6.2"/>
</g>
<path class="st0" d="M-362.3,297.1h-7.3l-2.5-7.4l0,0c-0.2-0.6-0.7-1-1.3-1c-0.8,0-1.4,0.6-1.4,1.4c0,0.2,0,0.3,0.1,0.4l0,0l3.1,9.3
	h9.3c0.8,0,1.4-0.6,1.4-1.4C-360.9,297.7-361.6,297.1-362.3,297.1z"/>
<circle class="st0" cx="-356.8" cy="273.4" r="6.2"/>
<path class="st0" d="M-343.8,276.7L-343.8,276.7c-0.6-0.3-1.2-0.4-1.9-0.4c-1.9,0-3.4,1.2-4,2.9l0,0l-3.5,9.6h-12
	c-1.5,0-2.8,1.2-2.8,2.8s1.2,2.8,2.8,2.8h13.9c1.1,0,2-0.6,2.5-1.5l0,0l4.3-6.6c4.7,4,6.5,10.5,7,16.5h-12.3c-2.3,0-4.2,1.9-4.2,4.2
	v18.1c0,2.3,1.9,4.2,4.2,4.2s4.2-1.9,4.2-4.2v-13.9h12.5c2.3,0,4.2-1.9,4.2-4.2C-329,292.1-334.3,281.4-343.8,276.7z"/>
<path class="st0" d="M-379,263c-8,0-14.6-6.5-14.6-14.6s6.5-14.6,14.6-14.6s14.6,6.5,14.6,14.6C-364.4,256.5-371,263-379,263z
	 M-379,236.6c-6.5,0-11.8,5.3-11.8,11.8c0,6.5,5.3,11.8,11.8,11.8s11.8-5.3,11.8-11.8C-367.2,241.9-372.5,236.6-379,236.6z"/>
<path class="st0" d="M-372.1,242.9c0-0.8-0.6-1.4-1.4-1.4c-0.4,0-0.7,0.2-1,0.4l-3.2,3.2v-5c0-0.8-0.6-1.4-1.4-1.4s-1.4,0.6-1.4,1.4
	v8.3c0,0.8,0.6,1.4,1.4,1.4c0.4,0,0.7-0.2,1-0.4l5.6-5.6C-372.2,243.6-372.1,243.3-372.1,242.9z"/>
</svg>
