<?xml version="1.0" encoding="utf-8"?>
<!-- Generator: Adobe Illustrator 19.0.0, SVG Export Plug-In . SVG Version: 6.00 Build 0)  -->
<svg version="1.1" id="Layer_1" xmlns="http://www.w3.org/2000/svg" xmlns:xlink="http://www.w3.org/1999/xlink" x="0px" y="0px"
	 viewBox="-455 251 48 48" style="enable-background:new -455 251 48 48;" xml:space="preserve">
<style type="text/css">
	.st0{fill:#FFFFFF;}
</style>
<g>
	<path class="st0" d="M-408,251L-408,251h-46c-0.6,0-1,0.4-1,1v46c0,0.6,0.4,1,1,1h46c0.6,0,1-0.4,1-1v-46
		C-407,251.4-407.4,251-408,251z M-453,253h15.8v6H-453V253z M-409,297h-44v-36h16.8h27.2V297z M-409,259h-26.3v-6h26.3V259z"/>
	<path class="st0" d="M-448.9,255h-1.4c-0.6,0-1,0.4-1,1s0.4,1,1,1h1.4c0.6,0,1-0.4,1-1S-448.4,255-448.9,255z"/>
	<path class="st0" d="M-444.5,255h-1.3c-0.6,0-1,0.4-1,1s0.4,1,1,1h1.4c0.6,0,1-0.4,1-1C-443.5,255.4-443.9,255-444.5,255z"/>
	<path class="st0" d="M-440,255h-1.4c-0.6,0-1,0.4-1,1s0.4,1,1,1h1.4c0.6,0,1-0.4,1-1S-439.4,255-440,255z"/>
	<path class="st0" d="M-432.1,257h20c0.6,0,1-0.4,1-1s-0.4-1-1-1h-20c-0.6,0-1,0.4-1,1S-432.7,257-432.1,257z"/>
	<path class="st0" d="M-412,263.2h-38c-0.6,0-1,0.4-1,1v6c0,0.6,0.4,1,1,1h38c0.6,0,1-0.4,1-1v-6C-411,263.6-411.5,263.2-412,263.2z
		 M-413,269.2h-36v-4h36V269.2z"/>
	<path class="st0" d="M-412,274.5h-17.6c-0.6,0-1,0.4-1,1v6c0,0.6,0.4,1,1,1h17.6c0.6,0,1-0.4,1-1v-6
		C-411,275-411.5,274.5-412,274.5z M-413,280.5h-15.6v-4h15.6V280.5z"/>
	<path class="st0" d="M-412,286.5h-17.6c-0.6,0-1,0.4-1,1v6c0,0.6,0.4,1,1,1h17.6c0.6,0,1-0.4,1-1v-6
		C-411,287-411.5,286.5-412,286.5z M-413,292.5h-15.6v-4h15.6V292.5z"/>
	<path class="st0" d="M-436,274.5h-14c-0.6,0-1,0.4-1,1v18c0,0.6,0.4,1,1,1h14c0.6,0,1-0.4,1-1v-18C-435,275-435.5,274.5-436,274.5z
		 M-437,292.5h-12v-16h12V292.5z"/>
</g>
</svg>
