<?xml version="1.0" encoding="utf-8"?>
<!-- Generator: Adobe Illustrator 19.0.0, SVG Export Plug-In . SVG Version: 6.00 Build 0)  -->
<svg version="1.1" id="Layer_1" xmlns="http://www.w3.org/2000/svg" xmlns:xlink="http://www.w3.org/1999/xlink" x="0px" y="0px"
	 viewBox="-445 241.6 60 61.4" style="enable-background:new -445 241.6 60 61.4;" xml:space="preserve">
<style type="text/css">
	.st0{fill:#FFFFFF;}
</style>
<polygon class="st0" points="-416,259 -414,259 -414,254.4 -411.3,251.7 -412.7,250.3 -415,252.6 -417.3,250.3 -418.7,251.7 
	-416,254.4 "/>
<path class="st0" d="M-396.5,268c-4.7,0-8.8,2.9-10.6,7h-3.5l-3.4-3.4V267h2c0.6,0,1-0.4,1-1v-3.8c3.6-1.6,6-5.2,6-9.2
	c0-5.5-4.5-10-10-10s-10,4.5-10,10c0,4,2.4,7.6,6,9.2v3.8c0,0.6,0.4,1,1,1h2v4.6l-3.4,3.4h-3.5c-1.8-4.1-5.8-7-10.6-7
	c-6.3,0-11.5,5.2-11.5,11.5V302c0,0.6,0.4,1,1,1h12c0.6,0,1-0.4,1-1v-5h8c0.6,0,1-0.4,1-1v-5h3c0.3,0,0.7-0.2,0.9-0.5
	c0.2-0.3,0.2-0.7,0-1l-3.9-7.8v-2.3c0-0.9-0.1-1.7-0.3-2.5h3.3c0.3,0,0.5-0.1,0.7-0.3l3.3-3.3l3.3,3.3c0.2,0.2,0.4,0.3,0.7,0.3h3.3
	c-0.2,0.8-0.3,1.6-0.3,2.5v2.3l-3.9,7.8c-0.2,0.3-0.1,0.7,0,1c0.2,0.3,0.5,0.5,0.9,0.5h3v5c0,0.6,0.4,1,1,1h8v5c0,0.6,0.4,1,1,1h8
	c2.8,0,5-2.2,5-5v-18.5C-385,273.2-390.2,268-396.5,268z M-417.7,260.5c-3.2-1.1-5.3-4.2-5.3-7.5c0-4.4,3.6-8,8-8s8,3.6,8,8
	c0,3.4-2.1,6.4-5.3,7.5c-0.4,0.1-0.7,0.5-0.7,0.9v3.5h-4v-3.5C-417,261.1-417.3,260.7-417.7,260.5z M-424,279.5v2.5
	c0,0.2,0,0.3,0.1,0.4l3.3,6.6h-2.4c-0.6,0-1,0.4-1,1v5h-8c-0.6,0-1,0.4-1,1v5h-10v-21.5c0-5.2,4.3-9.5,9.5-9.5c3.6,0,6.8,2,8.4,5h-3
	c-0.4-1.2-1.5-2-2.8-2c-1.7,0-3,1.3-3,3s1.3,3,3,3c1.3,0,2.4-0.8,2.8-2h3.8C-424.1,277.8-424,278.6-424,279.5z M-430,276
	c0,0.6-0.4,1-1,1s-1-0.4-1-1s0.4-1,1-1S-430,275.4-430,276z M-387,298c0,1.7-1.3,3-3,3h-7v-5c0-0.6-0.4-1-1-1h-8v-5c0-0.6-0.4-1-1-1
	h-2.4l3.3-6.6c0.1-0.1,0.1-0.3,0.1-0.4v-2.5c0-0.9,0.1-1.7,0.3-2.5h3.8c0.4,1.2,1.5,2,2.8,2c1.7,0,3-1.3,3-3s-1.3-3-3-3
	c-1.3,0-2.4,0.8-2.8,2h-3c1.6-3,4.8-5,8.4-5c5.2,0,9.5,4.3,9.5,9.5V298z M-400,276c0-0.6,0.4-1,1-1s1,0.4,1,1s-0.4,1-1,1
	S-400,276.6-400,276z"/>
<rect x="-402" y="252" class="st0" width="2" height="2"/>
<rect x="-398" y="252" class="st0" width="2" height="2"/>
<rect x="-398" y="256" class="st0" width="2" height="2"/>
<rect x="-398" y="248" class="st0" width="2" height="2"/>
<rect x="-430" y="252" class="st0" width="2" height="2"/>
<rect x="-434" y="252" class="st0" width="2" height="2"/>
<rect x="-434" y="248" class="st0" width="2" height="2"/>
<rect x="-434" y="256" class="st0" width="2" height="2"/>
</svg>
