<?xml version="1.0" encoding="utf-8"?>
<!-- Generator: Adobe Illustrator 19.0.0, SVG Export Plug-In . SVG Version: 6.00 Build 0)  -->
<svg version="1.1" id="Layer_1" xmlns="http://www.w3.org/2000/svg" xmlns:xlink="http://www.w3.org/1999/xlink" x="0px" y="0px"
	 viewBox="-446 242 62 62" style="enable-background:new -446 242 62 62;" xml:space="preserve">
<style type="text/css">
	.st0{fill:#FFFFFF;}
</style>
<g>
	<path class="st0" d="M-412,299c0-1.7-1.3-3-3-3s-3,1.3-3,3s1.3,3,3,3S-412,300.7-412,299z M-415,300c-0.6,0-1-0.4-1-1s0.4-1,1-1
		s1,0.4,1,1S-414.4,300-415,300z"/>
	<path class="st0" d="M-423.9,268c-6.6,0-12,5.4-12,12c0,1,0.1,2,0.4,3l0.4,1.7l15.9-15.9l-1.7-0.4
		C-421.9,268.2-422.9,268-423.9,268z M-433.9,280.8c0-0.2,0-0.5,0-0.7c0-5.5,4.5-10,10-10c0.2,0,0.5,0,0.7,0L-433.9,280.8z"/>
	<path class="st0" d="M-384,260.5c0-2.5-2-4.5-4.5-4.5c-1.2,0-2.4,0.5-3.2,1.3l-2.3,2.3V245c0-1.7-1.3-3-3-3h-36c-1.7,0-3,1.3-3,3
		v16.6c-6,4-10,10.8-10,18.5c0,5.9,2.3,11.4,6.5,15.6l0.7,0.7l2.8-2.8v7.4c0,1.7,1.3,3,3,3h36c1.7,0,3-1.3,3-3v-28.6l8.7-8.7
		C-384.5,262.9-384,261.7-384,260.5z M-396,264.4l1.1,1.1l-20.6,20.6l-1.1-1.1L-396,264.4z M-417.3,287.1l2.3,2.3l-2.7,0.4
		L-417.3,287.1z M-413,288.6l-1.1-1.1l20.6-20.6l1.1,1.1L-413,288.6z M-394.6,263l1.6-1.6l3.6,3.6l-1.6,1.6L-394.6,263z M-433,244
		h36c0.6,0,1,0.4,1,1v5h-38v-5C-434,244.4-433.6,244-433,244z M-439.5,292.7l1.6-1.2l-1.2-1.6l-1.6,1.2c-0.8-1.2-1.5-2.5-2-3.8
		l1.9-0.6l-0.6-1.9l-1.9,0.6c-0.4-1.4-0.6-2.8-0.7-4.2h2v-2h-2c0.1-1.5,0.3-2.9,0.7-4.2l1.9,0.6l0.6-1.9l-1.9-0.6
		c0.5-1.4,1.2-2.6,1.9-3.8l1.6,1.2l1.2-1.6l-1.6-1.2c0.9-1.1,1.9-2.1,3-3l1.2,1.6l1.6-1.2l-1.2-1.6c0.2-0.1,0.4-0.3,0.6-0.4
		c1-0.6,2.1-1.1,3.2-1.6l0.6,1.9l1.9-0.6l-0.6-1.9c0.3-0.1,0.5-0.1,0.8-0.2c0.3-0.1,0.6-0.1,0.9-0.2c0.4-0.1,0.8-0.1,1.2-0.2
		c0.2,0,0.4,0,0.6-0.1c0.3,0,0.5,0,0.8,0v2h2v-2c1.4,0.1,2.9,0.3,4.2,0.7l-0.6,1.9l1.9,0.6l0.6-1.9c1.3,0.5,2.6,1.2,3.8,2l-1.2,1.6
		l1.6,1.2l1.2-1.6c0.3,0.2,0.6,0.5,0.9,0.7l-28.4,28.4C-439.1,293.3-439.3,293-439.5,292.7z M-397,302h-18h-18c-0.6,0-1-0.4-1-1v-5
		h19h19v5C-396,301.6-396.4,302-397,302z M-396,294h-38v-2.4l26.4-26.4l-0.7-0.7c-4.2-4.2-9.7-6.5-15.6-6.5c-0.4,0-0.8,0-1.2,0
		c-0.1,0-0.2,0-0.3,0c-0.3,0-0.7,0.1-1,0.1c-0.1,0-0.1,0-0.2,0c-0.4,0-0.8,0.1-1.1,0.2c0,0,0,0-0.1,0c-2.2,0.4-4.2,1.1-6.2,2.1V252
		h38v9.6l-22.9,22.9l-1.3,7.7l7.7-1.3l16.5-16.5V294z M-386.7,262.3l-1.3,1.3l-3.6-3.6l1.3-1.3c0.5-0.5,1.1-0.7,1.8-0.7
		c1.4,0,2.5,1.1,2.5,2.5C-386,261.2-386.3,261.9-386.7,262.3z"/>
	<rect x="-421" y="246" class="st0" width="12" height="2"/>
</g>
</svg>
