<?xml version="1.0" encoding="UTF-8"?>
<svg width="358px" height="92px" viewBox="0 0 358 92" version="1.1" xmlns="http://www.w3.org/2000/svg" xmlns:xlink="http://www.w3.org/1999/xlink">
    <!-- Generator: Sketch 46.2 (44496) - http://www.bohemiancoding.com/sketch -->
    <title>A5 Copy</title>
    <desc>Created with Sketch.</desc>
    <defs>
        <linearGradient x1="0%" y1="50%" x2="95.4136586%" y2="50%" id="linearGradient-1">
            <stop stop-color="#DD731C" offset="0%"></stop>
            <stop stop-color="#FFCF01" offset="100%"></stop>
        </linearGradient>
    </defs>
    <g id="Logos" stroke="none" stroke-width="1" fill="none" fill-rule="evenodd">
        <g id="A5-Copy">
            <g id="Group-11-Copy-8" transform="translate(38.000000, 30.000000)">
                <g id="Group-9">
                    <text id="RAPID-PROTOTYPING" font-family="IBMPlexMono-ExtraLightItalic, IBM Plex Mono" font-size="24" font-style="italic" font-weight="300" letter-spacing="0.00899999961" fill="#000000">
                        <tspan x="0" y="25">RAPID</tspan>
                        <tspan x="72.045" y="25" font-family="IBMPlexMono, IBM Plex Mono" font-weight="normal"> </tspan>
                        <tspan x="86.454" y="25" font-family="IBMPlexMono-Medium, IBM Plex Mono" font-weight="400">PROTOTYPING</tspan>
                    </text>
                    <g id="noun_437026_cc-copy" transform="translate(257.000000, 8.000000)" fill-rule="nonzero" fill="url(#linearGradient-1)">
                        <path d="M23.756,8.50833263 L12.3274286,0.108096009 C12.1531429,-0.0197075911 11.9251429,-0.0353080306 11.736,0.0672948596 C11.5474286,0.170497767 11.4285714,0.375703547 11.4285714,0.599509851 L11.4285714,7.84771402 L0.898857143,0.108096009 C0.724571429,-0.0197075911 0.496571429,-0.0353080306 0.307428571,0.0672948596 C0.118857143,0.170497767 0,0.375703547 0,0.599509851 L0,17.3999831 C0,17.6237894 0.118857143,17.8289952 0.307428571,17.9321981 C0.390857143,17.9777994 0.481142857,18 0.571428571,18 C0.686857143,18 0.801142857,17.963399 0.898857143,17.8913969 L11.4285714,10.1523789 L11.4285714,17.3999831 C11.4285714,17.6237894 11.5474286,17.8289952 11.736,17.9321981 C11.8194286,17.9777994 11.9097143,18 12,18 C12.1154286,18 12.2297143,17.963399 12.3274286,17.8913969 L23.756,9.49116032 C23.9091429,9.37895716 24,9.19535198 24,8.99974647 C24,8.80414096 23.9091429,8.62053579 23.756,8.50833263 Z" id="Shape"></path>
                    </g>
                </g>
            </g>
        </g>
    </g>
</svg>